<!DOCTYPE svg PUBLIC "-//W3C//DTD SVG 1.1//EN" "http://www.w3.org/Graphics/SVG/1.1/DTD/svg11.dtd">
<!-- Uploaded to: SVG Repo, www.svgrepo.com, Transformed by: SVG Repo Mixer Tools -->
<svg width="229px" height="229px" viewBox="-0.24 -0.24 24.48 24.48" id="Layer_1" data-name="Layer 1" xmlns="http://www.w3.org/2000/svg" fill="#efbe16" transform="rotate(0)matrix(1, 0, 0, 1, 0, 0)">
<g id="SVGRepo_bgCarrier" stroke-width="0"/>
<g id="SVGRepo_tracerCarrier" stroke-linecap="round" stroke-linejoin="round" stroke="#CCCCCC" stroke-width="0.144">
<defs>
<style>.cls-1,.cls-3{fill:none;stroke:#efbe16;stroke-miterlimit:10;stroke-width:1.056;}.cls-2{fill:#efbe16;}.cls-3{stroke-linecap:round;}</style>
</defs>
<rect class="cls-1" x="1.5" y="1.5" width="17.18" height="21" rx="1.91"/>
<line class="cls-1" x1="9.14" y1="19.64" x2="11.05" y2="19.64"/>
<path class="cls-2" d="M22,22.5l-.47-2.86a1,1,0,1,1,1.9,0L23,22.5a.49.49,0,0,1-1,0Z"/>
<line class="cls-3" x1="22.5" y1="1.5" x2="22.5" y2="19.64"/>
</g>
<g id="SVGRepo_iconCarrier">
<defs>
<style>.cls-1,.cls-3{fill:none;stroke:#efbe16;stroke-miterlimit:10;stroke-width:1.704;}.cls-2{fill:#efbe16;}.cls-3{stroke-linecap:round;}</style>
</defs>
<rect class="cls-1" x="1.5" y="1.5" width="17.18" height="21" rx="1.91"/>
<line class="cls-1" x1="9.14" y1="19.64" x2="11.05" y2="19.64"/>
<path class="cls-2" d="M22,22.5l-.47-2.86a1,1,0,1,1,1.9,0L23,22.5a.49.49,0,0,1-1,0Z"/>
<line class="cls-3" x1="22.5" y1="1.5" x2="22.5" y2="19.64"/>
</g>
</svg>